<svg width="100" height="100" viewBox="0 0 100 100" fill="none" xmlns="http://www.w3.org/2000/svg">
<path d="M67.066 30.8545C71.803 35.4893 74.1438 41.7652 74.2676 48.3513C74.1405 54.3249 72.1921 59.6689 68.3594 64.257C68.259 64.3816 68.1585 64.5063 68.055 64.6347C65.8725 67.2904 62.8647 69.1147 59.7657 70.507C59.5572 70.6014 59.3487 70.6958 59.1339 70.7931C56.7969 71.7689 54.0986 72.3665 51.5625 72.4601C51.3425 72.4702 51.1224 72.4803 50.8957 72.4907C47.8015 72.5651 44.7891 72.1245 41.8648 71.1097C40.6693 70.7035 40.6693 70.7035 39.4616 70.9188C39.2637 71.0294 39.0658 71.14 38.8619 71.2539C38.5331 71.4346 38.5331 71.4346 38.1977 71.619C37.9692 71.7488 37.7407 71.8786 37.5122 72.0085C37.1741 72.1956 37.1741 72.1956 36.829 72.3865C35.9363 72.8818 35.0494 73.3832 34.1751 73.9105C33.3692 74.3367 32.7248 74.3916 31.836 74.218C31.2438 73.7886 31.0906 73.5442 30.8594 72.8508C30.761 71.7027 30.9243 70.7305 31.2203 69.6228C31.2547 69.4902 31.2892 69.3577 31.3246 69.2211C31.4691 68.667 31.6137 68.1136 31.7751 67.564C32.0418 66.645 32.2437 65.8043 32.2266 64.843C31.7755 64.0298 31.158 63.5019 30.4688 62.8898C30.0636 62.3694 29.7211 61.8196 29.3824 61.2541C29.2928 61.1051 29.2033 60.9562 29.1111 60.8028C27.1339 57.4079 25.9152 53.5495 25.7813 49.6086C25.7735 49.4039 25.7657 49.1992 25.7576 48.9883C25.6359 42.6659 27.6505 36.477 32.0389 31.8491C32.2959 31.5832 32.5542 31.3185 32.8125 31.0539C33.0074 30.8409 33.0074 30.8409 33.2062 30.6236C37.1755 26.3875 43.3861 24.3144 49.057 24.0356C55.8276 23.9182 62.1418 26.1741 67.066 30.8545ZM34.1797 45.507C33.2844 46.6911 33.21 47.9712 33.3985 49.4133C33.7422 50.6297 34.5003 51.4648 35.5469 52.1476C36.6247 52.7099 37.6535 52.9296 38.8611 52.642C40.0418 52.2606 40.9838 51.6263 41.6649 50.5775C42.2991 49.3181 42.4552 48.0998 42.022 46.7483C41.4903 45.5462 40.804 44.7693 39.6485 44.1398C37.5937 43.3736 35.6389 43.8475 34.1797 45.507ZM58.7891 45.3117C57.9578 46.5477 57.5308 47.7309 57.8125 49.218C58.2796 50.6662 59.0303 51.5961 60.3516 52.343C61.5628 52.8868 62.623 52.8667 63.8672 52.4406C65.065 51.9275 65.8698 51.0905 66.4383 49.9229C66.8166 48.7422 66.8077 47.3539 66.2964 46.215C65.5401 44.943 64.5072 44.2397 63.0967 43.8408C61.5627 43.4908 59.8001 44.0903 58.7891 45.3117ZM46.6278 45.2964C45.789 46.3015 45.4298 47.3764 45.5201 48.6808C45.7639 50.2233 46.4887 51.0803 47.6441 52.0866C48.6106 52.7017 49.6505 52.9001 50.7813 52.7336C52.3088 52.261 53.3821 51.4381 54.1413 50.0007C54.5927 48.8632 54.6062 47.7966 54.2115 46.6423C53.6705 45.464 52.8628 44.6635 51.6838 44.1215C49.7578 43.4361 48.0981 43.8967 46.6278 45.2964Z" fill="#DBFF49"/>
<path d="M74.4139 23.2417C74.5974 23.4149 74.781 23.5882 74.9701 23.7666C78.679 27.3556 82.8146 33.2102 83.3982 38.4761C83.6399 38.464 83.8816 38.4519 84.1307 38.4395C86.5779 38.4548 88.5738 39.4073 90.3685 41.0396C93.4291 44.3277 94.4115 48.999 94.3647 53.3595C94.1897 57.8378 92.9057 62.2555 89.8436 65.6245C89.6921 65.8096 89.6921 65.8096 89.5376 65.9984C88.3398 67.3613 86.2608 68.4367 84.4458 68.6008C82.5708 68.6464 80.8979 68.2549 79.1014 67.773C78.9853 67.9291 78.8692 68.0852 78.7497 68.246C77.6635 69.6915 76.5265 71.0581 75.2765 72.366C75.0923 72.559 74.9091 72.7529 74.727 72.9479C70.6959 77.2565 64.9697 80.735 59.1795 82.0308C58.9217 82.0308 58.6639 82.0308 58.3983 82.0308C58.4164 82.3692 58.4164 82.3692 58.4349 82.7144C58.4273 83.7789 58.2213 84.6782 57.5171 85.5006C56.1221 86.7921 54.6012 86.7786 52.7845 86.777C52.5652 86.7779 52.3459 86.7787 52.1199 86.7796C51.6573 86.7807 51.1947 86.7808 50.7321 86.78C50.0279 86.7793 49.3239 86.7839 48.6197 86.7889C48.1688 86.7893 47.7179 86.7894 47.267 86.7892C46.9538 86.7919 46.9538 86.7919 46.6343 86.7947C45.2501 86.7862 43.8859 86.6815 42.7496 85.8173C42.6223 85.653 42.6223 85.653 42.4925 85.4854C42.4041 85.3774 42.3158 85.2694 42.2247 85.1581C41.3447 83.6721 41.4048 81.8269 41.6853 80.1669C42.0027 79.1539 42.6664 78.4707 43.5545 77.9292C44.6246 77.471 45.6182 77.484 46.7611 77.4852C47.1677 77.4812 47.5742 77.4772 47.9807 77.473C48.6139 77.4686 49.2471 77.4654 49.8804 77.4642C52.619 77.4558 55.1628 77.2801 57.8123 76.562C58.0082 76.509 58.2042 76.456 58.406 76.4013C58.8657 76.2651 59.315 76.1154 59.7654 75.9517C59.9246 75.8946 60.0837 75.8375 60.2477 75.7787C66.7465 73.3556 72.1114 68.6969 75.5369 62.6949C75.6034 62.5794 75.6699 62.4639 75.7383 62.3449C75.9594 61.946 76.163 61.5403 76.367 61.1324C76.5047 60.8818 76.5047 60.8818 76.6451 60.6263C77.8161 58.2643 78.076 55.6654 78.457 53.0847C78.5538 52.4434 78.6596 51.8036 78.7634 51.1634C79.1921 48.4095 79.4272 45.9114 78.9061 43.1636C78.8704 42.9658 78.8348 42.768 78.7981 42.5643C78.7032 42.0948 78.592 41.636 78.4666 41.1739C78.4242 41.0128 78.3819 40.8517 78.3382 40.6857C77.0498 35.9336 74.757 31.7724 71.3377 28.2268C70.8983 27.7339 70.8983 27.7339 70.6907 27.3021C70.4496 26.842 70.192 26.7755 69.7264 26.562C69.4722 26.3409 69.2245 26.1121 68.9817 25.8784C63.3565 20.7964 55.5102 18.581 48.0467 18.9448C41.5047 19.4485 35.6727 22.0068 30.6639 26.1714C30.5088 26.2986 30.3537 26.4257 30.1939 26.5567C29.2783 27.3297 28.4905 28.1728 27.7342 29.1011C27.5076 29.3787 27.5076 29.3787 27.2764 29.6619C24.7737 32.7883 22.9545 36.2576 21.8138 40.0996C21.7688 40.2472 21.7238 40.3948 21.6775 40.5468C21.5259 41.0906 21.4042 41.6343 21.2889 42.187C21.2596 42.3254 21.2303 42.4638 21.2001 42.6064C20.6195 45.4723 20.796 47.9643 21.2767 50.8296C21.3416 51.2455 21.406 51.6614 21.4697 52.0774C21.6002 52.9238 21.7337 53.7696 21.8701 54.615C22.1499 56.3489 22.4159 58.0847 22.6754 59.8217C22.7518 60.3261 22.8315 60.8298 22.9116 61.3336C23.4661 64.9138 23.4661 64.9138 22.7415 66.479C21.3092 68.0216 18.7801 68.3988 16.7585 68.6237C14.3056 68.697 12.2073 67.6688 10.4368 66.0152C7.47044 62.8811 5.82571 58.3896 5.66388 54.1011C5.65381 53.9047 5.64374 53.7083 5.63337 53.506C5.50573 48.8898 6.67398 44.4933 9.87302 41.0716C11.4449 39.6025 13.466 38.4356 15.6492 38.4273C15.9668 38.4396 16.2843 38.4544 16.6014 38.4761C16.62 38.2875 16.6386 38.0989 16.6578 37.9047C17.3867 32.8748 21.18 27.7817 24.6092 24.2183C24.702 24.1204 24.7948 24.0226 24.8904 23.9218C31.061 17.4398 39.7928 13.5527 48.7505 13.2878C58.5047 13.1408 67.362 16.4937 74.4139 23.2417Z" fill="#DBFF49"/>
</svg>
